<svg id="svg" version="1.1" xmlns="http://www.w3.org/2000/svg" xmlns:xlink="http://www.w3.org/1999/xlink" width="400" height="131.79661016949152" viewBox="0, 0, 400,131.79661016949152"><g id="svgg"><path id="path0" d="M149.000 37.260 C 148.771 37.300,147.908 37.414,147.083 37.514 C 136.563 38.788,126.580 46.921,122.902 57.214 C 115.717 77.323,130.366 98.194,151.667 98.194 C 178.792 98.194,192.408 65.256,173.210 46.082 C 168.743 41.620,162.945 38.628,156.714 37.571 C 155.304 37.331,149.856 37.112,149.000 37.260 M137.673 58.465 C 139.045 59.290,144.100 62.386,145.311 63.143 C 145.601 63.324,145.245 65.561,144.877 65.866 C 144.748 65.973,143.729 66.159,142.613 66.279 C 141.497 66.398,139.908 66.573,139.083 66.666 C 132.603 67.401,133.388 67.496,133.653 66.010 C 133.905 64.603,133.954 64.559,135.417 64.450 C 138.985 64.185,141.099 63.965,141.218 63.847 C 141.352 63.714,140.506 63.119,138.908 62.222 C 136.478 60.859,135.173 60.066,135.110 59.914 C 135.029 59.718,135.406 57.787,135.580 57.505 C 135.724 57.272,135.579 57.206,137.673 58.465 M163.421 60.979 C 168.070 63.091,166.543 70.147,161.433 70.163 C 156.313 70.179,154.871 63.116,159.560 60.987 C 160.495 60.563,162.495 60.558,163.421 60.979 M130.983 77.046 C 142.153 87.893,159.699 88.006,170.561 77.302 C 171.630 76.249,171.726 76.443,171.079 78.346 C 167.786 88.032,157.500 94.250,147.250 92.750 C 145.722 92.526,145.204 92.407,143.251 91.826 C 137.106 90.000,130.853 83.402,129.320 77.126 C 129.135 76.369,128.944 75.619,128.897 75.458 C 128.741 74.929,129.028 75.147,130.983 77.046 " stroke="none" fill="#fafafa" fill-rule="evenodd"></path><path id="path1" d="M196.617 6.281 C 195.936 6.462,195.284 7.343,195.202 8.190 C 195.159 8.639,195.058 9.047,194.978 9.097 C 194.790 9.213,194.787 84.667,194.975 84.667 C 195.053 84.667,195.160 85.652,195.214 86.856 C 195.267 88.059,195.391 89.124,195.489 89.222 C 195.587 89.320,195.667 89.610,195.667 89.867 C 195.667 90.123,195.735 90.333,195.818 90.333 C 195.901 90.333,196.020 90.708,196.083 91.167 C 196.146 91.625,196.266 92.000,196.349 92.000 C 196.432 92.000,196.500 92.157,196.500 92.349 C 196.500 92.671,196.947 93.640,197.186 93.833 C 197.242 93.879,197.341 94.085,197.405 94.292 C 197.470 94.498,197.592 94.667,197.678 94.667 C 197.763 94.667,197.833 94.779,197.833 94.917 C 197.833 95.054,197.908 95.167,198.000 95.167 C 198.092 95.167,198.167 95.319,198.167 95.505 C 198.167 95.691,198.279 95.887,198.417 95.940 C 198.554 95.992,198.667 96.108,198.667 96.196 C 198.667 96.285,198.760 96.462,198.875 96.589 C 199.338 97.105,199.500 97.325,199.500 97.434 C 199.500 97.587,202.605 100.667,202.758 100.667 C 202.824 100.667,203.044 100.845,203.247 101.064 C 203.449 101.282,203.776 101.512,203.974 101.575 C 204.172 101.638,204.333 101.759,204.333 101.845 C 204.333 101.930,204.446 102.000,204.583 102.000 C 204.721 102.000,204.833 102.075,204.833 102.167 C 204.833 102.258,204.980 102.333,205.158 102.333 C 205.337 102.333,205.543 102.431,205.617 102.551 C 205.792 102.836,206.872 103.333,207.317 103.333 C 207.509 103.333,207.667 103.407,207.667 103.498 C 207.667 103.589,207.967 103.711,208.333 103.769 C 208.700 103.828,209.000 103.941,209.000 104.021 C 209.000 104.101,209.181 104.167,209.403 104.167 C 209.624 104.167,209.831 104.241,209.861 104.332 C 209.892 104.423,210.498 104.547,211.208 104.607 C 211.919 104.667,212.500 104.780,212.500 104.858 C 212.500 104.936,213.175 105.000,214.000 105.000 C 214.889 105.000,215.500 105.068,215.500 105.167 C 215.500 105.275,218.222 105.333,223.333 105.333 C 228.444 105.333,231.167 105.275,231.167 105.167 C 231.167 105.075,231.429 105.000,231.750 105.000 C 232.071 105.000,232.333 104.925,232.333 104.833 C 232.333 104.742,232.504 104.667,232.713 104.667 C 233.151 104.667,233.612 104.192,233.764 103.586 C 233.822 103.355,233.936 103.167,234.018 103.167 C 234.104 103.167,234.167 98.670,234.167 92.583 C 234.167 85.639,234.109 82.000,234.000 82.000 C 233.908 82.000,233.833 81.876,233.833 81.725 C 233.833 81.249,232.742 80.333,232.175 80.333 C 231.895 80.333,231.667 80.258,231.667 80.167 C 231.667 80.059,229.770 80.000,226.310 80.000 L 220.953 80.000 220.478 79.503 L 220.004 79.007 219.960 43.199 L 219.917 7.391 219.346 6.821 L 218.776 6.250 207.846 6.226 C 201.835 6.213,196.782 6.238,196.617 6.281 M241.167 6.288 C 240.938 6.331,240.713 6.416,240.667 6.475 C 240.621 6.535,240.433 6.664,240.250 6.764 C 240.067 6.863,239.843 7.107,239.752 7.305 C 239.662 7.504,239.530 7.667,239.460 7.667 C 239.391 7.667,239.333 7.929,239.333 8.250 C 239.333 8.571,239.258 8.833,239.167 8.833 C 239.057 8.833,239.000 12.194,239.000 18.583 C 239.000 24.972,239.057 28.333,239.167 28.333 C 239.258 28.333,239.333 28.558,239.333 28.833 C 239.333 29.108,239.408 29.333,239.500 29.333 C 239.592 29.333,239.667 29.596,239.667 29.917 C 239.667 30.238,239.592 30.500,239.500 30.500 C 239.408 30.500,239.333 30.725,239.333 31.000 C 239.333 31.275,239.258 31.500,239.167 31.500 C 239.056 31.500,239.000 43.417,239.000 66.917 C 239.000 90.417,239.056 102.333,239.167 102.333 C 239.258 102.333,239.333 102.558,239.333 102.833 C 239.333 103.108,239.408 103.333,239.500 103.333 C 239.592 103.333,239.667 103.434,239.667 103.557 C 239.667 103.939,240.408 104.667,240.797 104.667 C 241.000 104.667,241.167 104.742,241.167 104.833 C 241.167 104.925,241.429 105.000,241.750 105.000 C 242.071 105.000,242.333 105.075,242.333 105.167 C 242.333 105.276,245.556 105.333,251.667 105.333 C 257.778 105.333,261.000 105.276,261.000 105.167 C 261.000 105.075,261.300 105.000,261.667 105.000 C 262.033 105.000,262.333 104.928,262.333 104.841 C 262.333 104.753,262.597 104.632,262.918 104.572 C 263.349 104.491,263.529 104.357,263.603 104.064 C 263.658 103.846,263.770 103.667,263.851 103.667 C 263.933 103.667,264.000 103.404,264.000 103.083 C 264.000 102.763,264.075 102.500,264.167 102.500 C 264.277 102.500,264.333 90.587,264.333 67.093 C 264.333 43.668,264.277 31.651,264.167 31.583 C 264.075 31.527,264.000 31.260,264.000 30.990 C 264.000 30.721,263.925 30.500,263.833 30.500 C 263.742 30.500,263.667 30.313,263.667 30.083 C 263.667 29.854,263.742 29.667,263.833 29.667 C 263.925 29.667,264.000 29.404,264.000 29.083 C 264.000 28.762,264.075 28.500,264.167 28.500 C 264.276 28.500,264.333 25.111,264.333 18.667 C 264.333 12.222,264.276 8.833,264.167 8.833 C 264.075 8.833,264.000 8.571,264.000 8.250 C 264.000 7.929,263.943 7.667,263.873 7.667 C 263.803 7.667,263.672 7.504,263.581 7.305 C 263.491 7.107,263.267 6.863,263.083 6.764 C 262.900 6.664,262.697 6.508,262.631 6.417 C 262.511 6.248,242.021 6.125,241.167 6.288 M272.106 6.284 C 271.683 6.395,270.833 7.170,270.833 7.444 C 270.833 7.567,270.758 7.667,270.667 7.667 C 270.556 7.667,270.500 21.111,270.500 47.667 C 270.500 71.124,270.562 87.667,270.649 87.667 C 270.731 87.667,270.852 88.267,270.917 89.000 C 270.982 89.733,271.102 90.333,271.184 90.333 C 271.266 90.333,271.333 90.521,271.333 90.750 C 271.333 90.979,271.399 91.167,271.479 91.167 C 271.559 91.167,271.672 91.467,271.731 91.833 C 271.789 92.200,271.905 92.500,271.989 92.500 C 272.072 92.500,272.189 92.724,272.250 92.998 C 272.310 93.272,272.428 93.539,272.513 93.591 C 272.597 93.644,272.667 93.832,272.667 94.010 C 272.667 94.188,272.740 94.333,272.830 94.333 C 272.920 94.333,273.041 94.521,273.098 94.750 C 273.156 94.979,273.270 95.167,273.351 95.167 C 273.433 95.167,273.500 95.317,273.500 95.500 C 273.500 95.683,273.577 95.833,273.672 95.833 C 273.766 95.833,273.894 95.965,273.955 96.125 C 274.016 96.285,274.239 96.603,274.450 96.832 C 274.661 97.060,274.833 97.305,274.833 97.376 C 274.833 97.570,277.617 100.333,277.813 100.333 C 277.907 100.333,278.239 100.596,278.550 100.917 C 278.862 101.238,279.206 101.500,279.314 101.500 C 279.422 101.500,279.554 101.612,279.606 101.750 C 279.659 101.887,279.844 102.000,280.018 102.000 C 280.191 102.000,280.333 102.067,280.333 102.149 C 280.333 102.230,280.521 102.344,280.750 102.402 C 280.979 102.459,281.167 102.580,281.167 102.670 C 281.167 102.760,281.307 102.833,281.480 102.833 C 281.652 102.833,281.886 102.946,282.000 103.083 C 282.114 103.221,282.386 103.333,282.604 103.333 C 282.822 103.333,283.000 103.407,283.000 103.498 C 283.000 103.589,283.300 103.711,283.667 103.769 C 284.033 103.828,284.333 103.941,284.333 104.021 C 284.333 104.101,284.521 104.167,284.750 104.167 C 284.979 104.167,285.167 104.236,285.167 104.321 C 285.167 104.406,285.842 104.528,286.667 104.592 C 287.492 104.657,288.167 104.775,288.167 104.855 C 288.167 104.935,288.762 105.000,289.490 105.000 C 290.218 105.000,290.860 105.075,290.917 105.167 C 291.058 105.395,306.109 105.395,306.250 105.167 C 306.307 105.075,306.649 105.000,307.010 105.000 C 307.371 105.000,307.667 104.925,307.667 104.833 C 307.667 104.742,307.827 104.667,308.024 104.667 C 308.464 104.667,309.245 103.876,309.395 103.278 C 309.456 103.033,309.580 102.833,309.670 102.833 C 309.971 102.833,309.885 82.222,309.583 82.106 C 309.446 82.054,309.333 81.914,309.333 81.797 C 309.333 81.422,308.033 80.333,307.585 80.333 C 307.355 80.333,307.167 80.258,307.167 80.167 C 307.167 80.059,305.298 80.000,301.893 80.000 L 296.619 80.000 296.146 79.505 L 295.673 79.009 295.628 43.394 C 295.592 15.081,295.541 7.764,295.375 7.708 C 295.260 7.670,295.167 7.564,295.167 7.473 C 295.167 7.382,294.929 7.070,294.638 6.779 L 294.109 6.250 283.263 6.226 C 277.297 6.213,272.277 6.239,272.106 6.284 M313.000 6.288 C 312.771 6.331,312.546 6.416,312.500 6.475 C 312.454 6.535,312.272 6.663,312.094 6.761 C 311.917 6.859,311.692 7.084,311.594 7.261 C 311.497 7.438,311.342 7.637,311.250 7.702 C 311.140 7.781,311.069 23.702,311.040 54.744 C 311.012 85.612,310.941 101.667,310.832 101.667 C 310.482 101.667,310.665 102.710,311.083 103.098 C 311.313 103.310,311.500 103.559,311.500 103.651 C 311.500 103.906,312.317 104.667,312.591 104.667 C 312.724 104.667,312.833 104.742,312.833 104.833 C 312.833 104.925,313.129 105.000,313.490 105.000 C 313.851 105.000,314.193 105.075,314.250 105.167 C 314.392 105.396,332.833 105.396,332.833 105.167 C 332.833 105.075,333.133 105.000,333.500 105.000 C 333.867 105.000,334.167 104.925,334.167 104.833 C 334.167 104.742,334.287 104.667,334.433 104.667 C 334.580 104.667,334.955 104.412,335.267 104.100 L 335.833 103.533 335.833 92.004 L 335.833 80.474 336.321 79.987 C 336.792 79.516,336.860 79.500,338.426 79.500 L 340.043 79.500 340.934 80.375 C 341.424 80.856,341.920 81.340,342.037 81.450 C 342.154 81.561,342.342 81.748,342.454 81.867 C 342.566 81.986,342.734 82.158,342.827 82.250 C 342.920 82.342,343.228 82.660,343.511 82.958 C 343.794 83.256,344.095 83.500,344.179 83.500 C 344.264 83.500,344.333 83.620,344.333 83.767 C 344.333 83.914,345.121 84.815,346.083 85.769 C 347.046 86.724,347.833 87.575,347.833 87.661 C 347.833 87.746,348.499 88.482,349.312 89.294 C 350.126 90.107,350.843 90.936,350.907 91.136 C 350.970 91.336,351.086 91.500,351.163 91.500 C 351.241 91.500,351.722 91.931,352.233 92.458 C 353.249 93.507,353.231 93.489,353.980 94.199 C 354.266 94.470,354.500 94.764,354.500 94.852 C 354.500 94.940,355.250 95.760,356.167 96.675 C 357.083 97.590,357.833 98.378,357.833 98.426 C 357.833 98.528,358.151 98.925,358.466 99.216 C 358.585 99.327,358.773 99.513,358.883 99.631 C 359.946 100.770,360.883 101.667,361.011 101.667 C 361.097 101.667,361.167 101.792,361.167 101.945 C 361.167 102.326,363.373 104.462,363.905 104.595 C 364.140 104.654,364.333 104.770,364.333 104.851 C 364.333 104.933,364.629 105.000,364.990 105.000 C 365.351 105.000,365.693 105.075,365.750 105.167 C 365.892 105.396,384.333 105.396,384.333 105.167 C 384.333 105.075,384.596 105.000,384.917 105.000 C 385.238 105.000,385.500 104.925,385.500 104.833 C 385.500 104.742,385.661 104.667,385.857 104.667 C 386.399 104.667,387.189 103.739,387.290 102.982 C 387.338 102.625,387.442 102.333,387.522 102.333 C 387.602 102.333,387.667 100.683,387.667 98.667 C 387.667 96.650,387.601 95.000,387.522 95.000 C 387.442 95.000,387.337 94.646,387.288 94.214 C 387.239 93.781,387.117 93.400,387.016 93.367 C 386.916 93.333,386.833 93.231,386.833 93.140 C 386.833 93.049,386.608 92.749,386.333 92.474 C 386.058 92.199,385.833 91.910,385.833 91.832 C 385.833 91.753,385.687 91.643,385.509 91.586 C 385.330 91.529,385.139 91.341,385.083 91.167 C 385.028 90.993,384.837 90.804,384.658 90.747 C 384.479 90.691,384.333 90.537,384.333 90.407 C 384.333 90.276,383.808 89.638,383.167 88.988 C 382.525 88.339,382.000 87.741,382.000 87.659 C 382.000 87.577,381.325 86.843,380.500 86.027 C 379.675 85.211,379.000 84.486,379.000 84.416 C 379.000 84.345,378.438 83.729,377.750 83.046 C 377.063 82.363,376.500 81.741,376.500 81.663 C 376.500 81.586,375.900 80.917,375.167 80.177 C 374.433 79.437,373.833 78.791,373.833 78.742 C 373.833 78.638,373.513 78.239,373.198 77.950 C 373.078 77.840,372.778 77.533,372.531 77.268 C 372.285 77.004,371.992 76.704,371.881 76.602 C 371.393 76.156,371.238 76.001,371.042 75.765 C 370.927 75.627,370.833 75.465,370.833 75.406 C 370.833 75.346,370.271 74.744,369.583 74.067 C 368.896 73.391,368.333 72.765,368.333 72.676 C 368.333 72.587,367.696 71.881,366.917 71.107 C 366.137 70.333,365.499 69.636,365.498 69.558 C 365.498 69.480,365.010 68.944,364.415 68.367 C 363.286 67.271,363.168 67.022,363.583 66.607 C 363.721 66.470,363.833 66.288,363.833 66.202 C 363.833 66.117,364.433 65.444,365.167 64.707 C 365.900 63.970,366.500 63.316,366.500 63.255 C 366.500 63.193,367.100 62.545,367.833 61.813 C 368.567 61.082,369.167 60.413,369.167 60.327 C 369.167 60.242,369.804 59.538,370.583 58.764 C 371.363 57.990,372.000 57.293,372.000 57.216 C 372.000 57.138,372.131 56.950,372.292 56.799 C 372.452 56.647,372.673 56.424,372.784 56.303 C 372.894 56.182,373.081 55.993,373.200 55.883 C 373.319 55.773,373.510 55.585,373.623 55.466 C 373.737 55.347,374.018 55.064,374.248 54.837 C 374.478 54.610,374.667 54.357,374.667 54.275 C 374.667 54.193,375.229 53.579,375.917 52.911 C 376.604 52.244,377.167 51.624,377.167 51.535 C 377.167 51.445,377.879 50.659,378.750 49.788 C 379.621 48.918,380.333 48.152,380.333 48.088 C 380.333 48.024,380.821 47.488,381.417 46.898 C 382.012 46.308,382.500 45.754,382.500 45.667 C 382.500 45.579,383.053 44.959,383.728 44.288 C 384.403 43.617,385.008 42.903,385.073 42.701 C 385.137 42.499,385.253 42.333,385.332 42.333 C 385.536 42.333,386.833 40.961,386.833 40.745 C 386.833 40.689,386.946 40.530,387.083 40.393 C 387.221 40.255,387.333 39.848,387.333 39.488 C 387.333 39.128,387.408 38.833,387.500 38.833 C 387.606 38.833,387.667 37.500,387.667 35.167 C 387.667 33.150,387.602 31.500,387.522 31.500 C 387.442 31.500,387.338 31.204,387.289 30.843 C 387.180 30.027,386.533 29.345,385.747 29.217 C 385.428 29.165,385.167 29.058,385.167 28.978 C 385.167 28.898,380.610 28.833,374.917 28.833 C 368.194 28.833,364.667 28.891,364.667 29.000 C 364.667 29.092,364.485 29.167,364.262 29.167 C 364.039 29.167,363.745 29.279,363.607 29.417 C 363.470 29.554,363.315 29.667,363.264 29.667 C 363.030 29.667,362.500 30.271,362.500 30.537 C 362.500 30.700,362.431 30.833,362.346 30.833 C 362.152 30.833,361.167 31.810,361.167 32.002 C 361.167 32.080,361.021 32.191,360.842 32.247 C 360.663 32.304,360.472 32.493,360.417 32.667 C 360.361 32.841,360.174 33.028,360.000 33.083 C 359.826 33.139,359.633 33.344,359.571 33.539 C 359.509 33.735,358.530 34.815,357.396 35.941 C 356.261 37.066,355.333 38.055,355.333 38.138 C 355.333 38.221,354.921 38.693,354.418 39.186 C 353.914 39.680,353.408 40.180,353.293 40.299 C 353.178 40.417,352.877 40.711,352.625 40.951 C 352.373 41.192,352.167 41.457,352.167 41.541 C 352.167 41.626,351.417 42.439,350.500 43.350 C 349.583 44.260,348.833 45.075,348.833 45.162 C 348.833 45.249,348.121 46.029,347.250 46.895 C 346.379 47.762,345.667 48.518,345.667 48.576 C 345.667 48.692,345.367 49.075,345.034 49.383 C 344.915 49.493,344.727 49.681,344.617 49.800 C 344.507 49.919,344.321 50.106,344.203 50.216 C 343.254 51.106,343.000 51.378,343.000 51.502 C 343.000 51.580,342.854 51.691,342.675 51.747 C 342.497 51.804,342.302 52.002,342.244 52.187 C 342.185 52.372,341.654 53.006,341.065 53.595 L 339.994 54.667 338.574 54.667 L 337.154 54.667 336.493 54.013 L 335.833 53.359 335.833 30.580 C 335.833 5.674,335.885 7.027,334.922 6.727 C 334.736 6.669,334.530 6.538,334.464 6.436 C 334.345 6.250,313.940 6.109,313.000 6.288 M216.800 9.367 C 216.954 9.521,217.000 17.967,217.000 46.367 C 217.000 66.607,217.019 83.183,217.042 83.204 C 217.065 83.224,220.196 83.280,224.000 83.329 L 230.917 83.417 230.960 92.398 C 230.992 99.120,230.953 101.439,230.806 101.617 C 230.445 102.051,213.144 101.834,211.483 101.374 C 204.484 99.436,199.336 93.653,198.409 86.688 C 198.111 84.453,198.044 10.040,198.339 9.489 C 198.552 9.091,216.406 8.972,216.800 9.367 M292.133 9.367 C 292.288 9.521,292.333 17.941,292.333 46.250 C 292.333 74.559,292.379 82.979,292.533 83.133 C 292.682 83.282,294.441 83.333,299.417 83.333 C 304.393 83.333,306.151 83.384,306.300 83.533 C 306.451 83.684,306.500 85.922,306.500 92.583 C 306.500 99.244,306.451 101.483,306.300 101.633 C 305.974 101.960,290.169 101.912,288.230 101.579 C 281.640 100.447,276.151 95.455,274.216 88.833 L 273.753 87.250 273.707 48.418 C 273.682 27.061,273.698 9.492,273.742 9.377 C 273.857 9.078,291.836 9.069,292.133 9.367 M260.986 9.640 C 261.219 10.077,261.231 27.234,260.998 27.670 C 260.724 28.182,242.779 28.189,242.506 27.678 C 242.393 27.467,242.333 24.337,242.333 18.667 C 242.333 12.996,242.393 9.866,242.506 9.656 C 242.769 9.165,260.723 9.149,260.986 9.640 M332.732 9.597 C 332.788 9.742,332.833 20.617,332.833 33.764 L 332.833 57.667 337.488 57.667 L 342.142 57.667 342.492 57.222 C 342.854 56.762,343.386 56.186,347.081 52.250 C 349.611 49.554,352.683 46.225,353.988 44.763 C 354.485 44.206,356.399 42.137,358.239 40.167 C 360.080 38.196,362.408 35.683,363.411 34.583 C 364.415 33.483,365.365 32.489,365.523 32.373 C 365.823 32.154,383.826 32.039,384.173 32.254 C 384.266 32.311,384.333 33.634,384.333 35.398 L 384.333 38.442 380.813 42.346 C 378.876 44.493,376.980 46.587,376.600 47.000 C 375.671 48.007,370.923 53.210,370.067 54.159 C 369.692 54.576,368.079 56.346,366.484 58.093 C 359.425 65.822,358.667 66.690,358.667 67.036 C 358.667 67.166,358.873 67.500,359.125 67.777 C 359.948 68.682,365.853 75.164,368.667 78.250 C 370.179 79.910,372.467 82.426,373.750 83.842 C 375.033 85.258,376.543 86.904,377.106 87.500 C 377.669 88.096,378.494 89.009,378.939 89.528 C 379.385 90.048,380.781 91.606,382.042 92.990 L 384.333 95.507 384.333 98.470 C 384.333 100.553,384.274 101.493,384.133 101.633 C 383.983 101.784,381.696 101.833,374.864 101.833 L 365.794 101.833 365.014 101.042 C 364.032 100.046,362.070 97.950,359.916 95.595 C 358.005 93.506,354.457 89.674,351.178 86.158 C 348.808 83.616,344.781 79.269,342.580 76.876 L 342.076 76.328 337.496 76.372 L 332.917 76.417 332.874 88.901 C 332.844 97.787,332.778 101.450,332.645 101.609 C 332.451 101.843,315.192 101.961,314.597 101.732 C 314.322 101.627,314.170 9.719,314.444 9.444 C 314.716 9.173,332.627 9.322,332.732 9.597 M20.000 12.167 C 20.000 12.258,19.813 12.333,19.583 12.333 C 19.354 12.333,19.167 12.408,19.167 12.500 C 19.167 12.592,19.033 12.667,18.870 12.667 C 18.507 12.667,18.044 13.184,17.902 13.747 C 17.845 13.978,17.730 14.167,17.649 14.167 C 17.562 14.167,17.500 32.649,17.500 58.500 C 17.500 83.495,17.563 102.833,17.645 102.833 C 17.725 102.833,17.832 103.097,17.885 103.418 C 17.995 104.101,18.288 104.440,18.897 104.593 C 19.137 104.653,19.333 104.770,19.333 104.851 C 19.333 104.933,19.629 105.000,19.990 105.000 C 20.351 105.000,20.693 105.075,20.750 105.167 C 20.893 105.398,89.441 105.398,89.583 105.167 C 89.640 105.075,90.357 105.000,91.177 105.000 C 91.996 105.000,92.667 104.936,92.667 104.858 C 92.667 104.780,93.280 104.669,94.030 104.611 C 94.781 104.553,95.471 104.429,95.564 104.336 C 95.657 104.243,95.868 104.167,96.033 104.167 C 96.198 104.167,96.333 104.092,96.333 104.000 C 96.333 103.908,96.502 103.833,96.708 103.832 C 96.915 103.832,97.298 103.719,97.561 103.582 C 97.823 103.445,98.112 103.333,98.202 103.333 C 98.411 103.333,99.556 102.804,99.667 102.656 C 99.712 102.595,99.938 102.487,100.167 102.415 C 100.396 102.344,100.705 102.146,100.853 101.976 C 101.001 101.806,101.192 101.667,101.277 101.667 C 101.458 101.667,102.001 101.272,102.712 100.625 C 102.989 100.373,103.282 100.167,103.361 100.167 C 103.620 100.167,105.833 97.881,105.833 97.614 C 105.833 97.472,105.979 97.309,106.158 97.253 C 106.337 97.196,106.535 96.985,106.599 96.783 C 106.662 96.582,106.843 96.304,107.000 96.167 C 107.157 96.029,107.339 95.748,107.404 95.542 C 107.469 95.335,107.586 95.167,107.665 95.167 C 107.743 95.167,107.856 94.942,107.917 94.667 C 107.977 94.392,108.078 94.167,108.141 94.167 C 108.265 94.167,108.833 92.935,108.833 92.666 C 108.833 92.574,108.908 92.500,109.000 92.500 C 109.092 92.500,109.167 92.313,109.167 92.083 C 109.167 91.854,109.235 91.667,109.318 91.667 C 109.401 91.667,109.520 91.292,109.583 90.833 C 109.646 90.375,109.761 90.000,109.839 90.000 C 109.916 90.000,110.032 89.475,110.095 88.833 C 110.158 88.192,110.275 87.667,110.355 87.667 C 110.435 87.667,110.500 87.104,110.500 86.417 C 110.500 85.694,110.570 85.167,110.667 85.167 C 110.777 85.167,110.833 76.222,110.833 58.667 C 110.833 41.111,110.777 32.167,110.667 32.167 C 110.570 32.167,110.500 31.639,110.500 30.917 C 110.500 30.229,110.436 29.667,110.358 29.667 C 110.280 29.667,110.167 29.090,110.107 28.384 C 110.048 27.679,109.931 27.061,109.849 27.009 C 109.767 26.958,109.646 26.560,109.581 26.125 C 109.516 25.690,109.396 25.333,109.314 25.333 C 109.233 25.333,109.167 25.146,109.167 24.917 C 109.167 24.688,109.098 24.500,109.013 24.500 C 108.929 24.500,108.810 24.275,108.750 24.000 C 108.690 23.725,108.571 23.500,108.487 23.500 C 108.402 23.500,108.333 23.358,108.333 23.184 C 108.333 23.011,108.221 22.826,108.083 22.773 C 107.946 22.720,107.833 22.562,107.833 22.422 C 107.833 22.282,107.758 22.167,107.667 22.167 C 107.575 22.167,107.500 22.014,107.500 21.828 C 107.500 21.642,107.388 21.446,107.250 21.394 C 107.113 21.341,107.000 21.190,107.000 21.058 C 107.000 20.925,106.812 20.644,106.583 20.431 C 106.354 20.219,106.167 19.989,106.167 19.920 C 106.167 19.766,103.081 16.667,102.928 16.667 C 102.867 16.667,102.541 16.399,102.204 16.072 C 101.867 15.744,101.388 15.436,101.140 15.386 C 100.891 15.337,100.648 15.192,100.599 15.065 C 100.550 14.937,100.396 14.833,100.255 14.833 C 100.115 14.833,100.000 14.758,100.000 14.667 C 100.000 14.575,99.850 14.500,99.667 14.500 C 99.483 14.500,99.333 14.431,99.333 14.347 C 99.333 14.262,99.108 14.144,98.833 14.083 C 98.558 14.023,98.333 13.904,98.333 13.820 C 98.333 13.736,98.071 13.667,97.750 13.667 C 97.429 13.667,97.167 13.595,97.167 13.508 C 97.167 13.420,96.885 13.301,96.542 13.243 C 96.198 13.185,95.680 13.031,95.391 12.902 C 95.103 12.773,94.484 12.667,94.016 12.667 C 93.549 12.667,93.167 12.592,93.167 12.500 C 93.167 12.408,92.792 12.333,92.333 12.333 C 91.875 12.333,91.500 12.258,91.500 12.167 C 91.500 12.056,79.472 12.000,55.750 12.000 C 32.028 12.000,20.000 12.056,20.000 12.167 M94.021 15.795 C 100.420 17.653,105.192 22.435,106.952 28.750 L 107.417 30.417 107.470 57.667 C 107.511 78.147,107.474 85.269,107.325 86.333 C 106.208 94.276,99.899 100.667,92.185 101.671 C 90.167 101.933,20.973 101.891,20.805 101.627 C 20.651 101.384,20.615 15.996,20.769 15.594 C 20.862 15.351,24.016 15.332,56.810 15.377 L 92.750 15.426 94.021 15.795 M150.933 30.640 C 150.885 30.717,149.592 30.830,148.058 30.890 C 146.524 30.951,145.228 31.066,145.176 31.145 C 145.125 31.225,144.502 31.343,143.792 31.409 C 143.081 31.475,142.500 31.597,142.500 31.681 C 142.500 31.765,142.275 31.833,142.000 31.833 C 141.725 31.833,141.500 31.905,141.500 31.992 C 141.500 32.079,141.050 32.201,140.500 32.263 C 139.950 32.325,139.500 32.442,139.500 32.522 C 139.500 32.601,139.387 32.667,139.250 32.667 C 139.112 32.667,139.000 32.735,139.000 32.818 C 139.000 32.901,138.625 33.020,138.167 33.083 C 137.708 33.146,137.333 33.260,137.333 33.336 C 137.333 33.412,137.108 33.523,136.833 33.583 C 136.558 33.644,136.333 33.762,136.333 33.847 C 136.333 33.931,136.183 34.000,136.000 34.000 C 135.817 34.000,135.667 34.068,135.667 34.152 C 135.667 34.236,135.367 34.355,135.000 34.417 C 134.633 34.479,134.333 34.598,134.333 34.681 C 134.333 34.765,134.221 34.833,134.083 34.833 C 133.946 34.833,133.833 34.908,133.833 35.000 C 133.833 35.092,133.726 35.167,133.595 35.167 C 133.464 35.167,133.255 35.269,133.129 35.395 C 133.004 35.520,132.736 35.675,132.534 35.739 C 132.332 35.803,132.167 35.926,132.167 36.011 C 132.167 36.097,132.054 36.167,131.917 36.167 C 131.779 36.167,131.667 36.236,131.667 36.320 C 131.667 36.404,131.438 36.524,131.159 36.585 C 130.879 36.646,130.561 36.840,130.452 37.015 C 130.343 37.190,130.170 37.333,130.069 37.333 C 129.967 37.333,129.711 37.483,129.500 37.667 C 129.289 37.850,129.047 38.000,128.963 38.000 C 128.880 38.000,128.563 38.262,128.261 38.583 C 127.958 38.904,127.657 39.167,127.591 39.167 C 127.525 39.167,127.055 39.579,126.547 40.083 C 126.039 40.587,125.552 41.000,125.466 41.000 C 125.264 41.000,124.833 41.430,124.833 41.631 C 124.833 41.716,124.346 42.281,123.750 42.886 C 123.154 43.490,122.667 44.066,122.667 44.164 C 122.667 44.263,122.554 44.387,122.417 44.440 C 122.279 44.492,122.167 44.644,122.167 44.776 C 122.167 44.908,121.990 45.181,121.773 45.383 C 121.557 45.585,121.328 45.915,121.265 46.116 C 121.201 46.318,121.012 46.527,120.845 46.580 C 120.673 46.634,120.495 46.902,120.436 47.194 C 120.379 47.479,120.188 47.837,120.011 47.991 C 119.834 48.144,119.638 48.472,119.576 48.718 C 119.515 48.965,119.405 49.167,119.333 49.167 C 119.262 49.167,119.156 49.354,119.098 49.583 C 119.041 49.813,118.920 50.000,118.830 50.000 C 118.740 50.000,118.667 50.188,118.667 50.417 C 118.667 50.646,118.598 50.833,118.513 50.833 C 118.429 50.833,118.310 51.058,118.250 51.333 C 118.190 51.608,118.071 51.833,117.987 51.833 C 117.902 51.833,117.833 51.983,117.833 52.167 C 117.833 52.350,117.762 52.500,117.674 52.500 C 117.587 52.500,117.463 52.781,117.400 53.125 C 117.337 53.469,117.240 53.788,117.184 53.833 C 116.943 54.033,116.665 54.703,116.565 55.326 C 116.506 55.697,116.397 56.000,116.324 56.000 C 116.251 56.000,116.139 56.413,116.076 56.917 C 116.013 57.421,115.895 57.833,115.814 57.833 C 115.733 57.833,115.667 58.090,115.667 58.403 C 115.667 58.716,115.592 58.997,115.501 59.028 C 115.410 59.058,115.287 59.665,115.227 60.375 C 115.167 61.085,115.054 61.667,114.976 61.667 C 114.897 61.667,114.833 62.154,114.833 62.750 C 114.833 63.361,114.761 63.833,114.667 63.833 C 114.560 63.833,114.500 65.219,114.500 67.657 C 114.500 70.026,114.563 71.520,114.667 71.583 C 114.758 71.640,114.833 72.169,114.833 72.760 C 114.833 73.350,114.897 73.833,114.976 73.833 C 115.054 73.833,115.167 74.415,115.227 75.125 C 115.287 75.835,115.410 76.442,115.501 76.472 C 115.592 76.503,115.667 76.784,115.667 77.097 C 115.667 77.410,115.733 77.667,115.814 77.667 C 115.895 77.667,116.013 78.079,116.076 78.583 C 116.139 79.088,116.257 79.500,116.338 79.500 C 116.419 79.500,116.534 79.763,116.595 80.085 C 116.655 80.407,116.771 80.711,116.852 80.762 C 116.934 80.812,117.000 81.036,117.000 81.260 C 117.000 81.484,117.065 81.667,117.145 81.667 C 117.225 81.667,117.339 81.967,117.397 82.333 C 117.456 82.700,117.578 83.000,117.669 83.000 C 117.759 83.000,117.833 83.112,117.833 83.250 C 117.833 83.387,117.900 83.500,117.981 83.500 C 118.063 83.500,118.179 83.762,118.239 84.083 C 118.299 84.404,118.420 84.667,118.508 84.667 C 118.595 84.667,118.667 84.779,118.667 84.917 C 118.667 85.054,118.738 85.167,118.826 85.167 C 118.913 85.167,119.034 85.429,119.094 85.750 C 119.155 86.071,119.267 86.333,119.344 86.333 C 119.421 86.333,119.615 86.615,119.775 86.958 C 119.935 87.302,120.116 87.621,120.177 87.667 C 120.238 87.712,120.341 87.919,120.405 88.125 C 120.470 88.331,120.592 88.500,120.678 88.500 C 120.763 88.500,120.833 88.612,120.833 88.750 C 120.833 88.888,120.903 89.000,120.989 89.000 C 121.074 89.000,121.196 89.162,121.258 89.359 C 121.321 89.557,121.551 89.884,121.769 90.087 C 121.988 90.289,122.167 90.508,122.167 90.573 C 122.167 90.637,122.260 90.795,122.375 90.923 C 122.816 91.414,123.000 91.656,123.000 91.742 C 123.000 91.915,127.482 96.333,127.658 96.333 C 127.756 96.333,127.999 96.521,128.198 96.750 C 128.397 96.979,128.649 97.167,128.757 97.167 C 128.865 97.167,129.094 97.354,129.266 97.583 C 129.438 97.813,129.668 98.000,129.778 98.000 C 129.887 98.000,130.079 98.103,130.204 98.228 C 130.330 98.353,130.597 98.508,130.799 98.573 C 131.001 98.637,131.167 98.759,131.167 98.845 C 131.167 98.930,131.279 99.000,131.417 99.000 C 131.554 99.000,131.667 99.067,131.667 99.149 C 131.667 99.230,131.854 99.344,132.083 99.402 C 132.313 99.459,132.500 99.580,132.500 99.670 C 132.500 99.760,132.612 99.833,132.750 99.833 C 132.887 99.833,133.000 99.905,133.000 99.992 C 133.000 100.080,133.262 100.201,133.583 100.261 C 133.904 100.321,134.167 100.437,134.167 100.519 C 134.167 100.600,134.279 100.667,134.417 100.667 C 134.554 100.667,134.667 100.736,134.667 100.820 C 134.667 100.904,134.892 101.023,135.167 101.083 C 135.442 101.144,135.667 101.254,135.667 101.328 C 135.667 101.402,135.929 101.512,136.250 101.572 C 136.571 101.633,136.833 101.753,136.833 101.841 C 136.833 101.928,137.021 102.000,137.250 102.000 C 137.479 102.000,137.667 102.065,137.667 102.145 C 137.667 102.225,137.967 102.339,138.333 102.397 C 138.700 102.456,139.000 102.578,139.000 102.669 C 139.000 102.759,139.181 102.833,139.403 102.833 C 139.624 102.833,139.831 102.906,139.861 102.994 C 139.892 103.083,140.367 103.207,140.917 103.269 C 141.467 103.332,141.958 103.447,142.009 103.524 C 142.060 103.602,142.567 103.714,143.134 103.773 C 143.702 103.832,144.167 103.945,144.167 104.024 C 144.167 104.102,144.460 104.167,144.819 104.167 C 145.194 104.167,145.502 104.256,145.542 104.375 C 145.595 104.536,146.954 104.583,151.583 104.583 C 156.213 104.583,157.571 104.536,157.625 104.375 C 157.665 104.256,157.973 104.167,158.347 104.167 C 158.706 104.167,159.000 104.100,159.000 104.020 C 159.000 103.939,159.563 103.820,160.250 103.755 C 160.938 103.691,161.500 103.578,161.500 103.505 C 161.500 103.432,161.912 103.320,162.417 103.257 C 162.921 103.194,163.333 103.073,163.333 102.988 C 163.333 102.903,163.521 102.833,163.750 102.833 C 163.979 102.833,164.167 102.768,164.167 102.688 C 164.167 102.608,164.467 102.495,164.833 102.436 C 165.200 102.377,165.500 102.255,165.500 102.165 C 165.500 102.074,165.688 102.000,165.917 102.000 C 166.146 102.000,166.333 101.928,166.333 101.841 C 166.333 101.753,166.596 101.633,166.917 101.572 C 167.237 101.512,167.500 101.402,167.500 101.328 C 167.500 101.254,167.725 101.144,168.000 101.083 C 168.275 101.023,168.500 100.922,168.500 100.859 C 168.500 100.735,169.732 100.167,170.001 100.167 C 170.092 100.167,170.167 100.092,170.167 100.000 C 170.167 99.908,170.279 99.833,170.417 99.833 C 170.554 99.833,170.667 99.760,170.667 99.670 C 170.667 99.580,170.854 99.459,171.083 99.402 C 171.313 99.344,171.500 99.230,171.500 99.149 C 171.500 99.067,171.612 99.000,171.750 99.000 C 171.887 99.000,172.000 98.930,172.000 98.845 C 172.000 98.759,172.165 98.637,172.367 98.573 C 172.569 98.508,172.837 98.353,172.962 98.228 C 173.088 98.103,173.280 98.000,173.389 98.000 C 173.498 98.000,173.728 97.813,173.900 97.583 C 174.073 97.354,174.353 97.167,174.523 97.167 C 174.694 97.167,174.833 97.089,174.833 96.993 C 174.833 96.823,175.134 97.020,175.550 97.464 C 175.808 97.739,176.594 98.525,176.870 98.784 C 176.987 98.894,177.173 99.081,177.284 99.200 C 177.394 99.319,177.581 99.509,177.700 99.623 C 178.466 100.353,178.522 100.466,178.409 101.066 C 178.347 101.396,178.230 101.667,178.148 101.667 C 178.067 101.667,178.000 102.604,178.000 103.750 C 178.000 105.028,178.064 105.833,178.167 105.833 C 178.258 105.833,178.333 105.991,178.333 106.183 C 178.333 106.542,178.756 107.405,179.125 107.801 C 179.240 107.923,179.333 108.090,179.333 108.172 C 179.333 108.399,197.332 126.333,197.560 126.333 C 197.670 126.333,197.868 126.483,198.000 126.667 C 198.132 126.850,198.331 127.000,198.442 127.000 C 198.552 127.000,198.759 127.116,198.900 127.257 C 199.042 127.399,199.535 127.559,199.995 127.614 C 200.456 127.668,200.833 127.778,200.833 127.857 C 200.833 127.935,201.396 128.000,202.083 128.000 C 202.771 128.000,203.333 127.934,203.333 127.853 C 203.333 127.771,203.746 127.654,204.250 127.591 C 204.754 127.528,205.167 127.415,205.167 127.339 C 205.167 127.264,205.363 127.154,205.603 127.093 C 205.842 127.033,206.481 126.538,207.021 125.992 C 207.562 125.446,208.075 125.000,208.161 125.000 C 208.371 125.000,210.000 123.362,210.000 123.151 C 210.000 123.059,210.188 122.810,210.417 122.598 C 210.646 122.386,210.833 122.127,210.833 122.023 C 210.833 121.918,210.900 121.833,210.981 121.833 C 211.063 121.833,211.179 121.571,211.239 121.250 C 211.299 120.929,211.420 120.667,211.508 120.667 C 211.595 120.667,211.667 120.446,211.667 120.177 C 211.667 119.907,211.742 119.640,211.833 119.583 C 211.925 119.527,212.000 118.927,212.000 118.250 C 212.000 117.573,211.925 116.973,211.833 116.917 C 211.742 116.860,211.667 116.593,211.667 116.323 C 211.667 116.054,211.601 115.833,211.521 115.833 C 211.441 115.833,211.328 115.533,211.269 115.167 C 211.211 114.800,211.089 114.500,210.998 114.500 C 210.907 114.500,210.833 114.422,210.833 114.326 C 210.833 114.108,210.636 113.873,209.522 112.763 C 209.030 112.273,208.553 111.797,208.461 111.705 C 208.370 111.614,207.882 111.126,207.378 110.622 C 206.874 110.118,206.386 109.630,206.295 109.539 C 206.203 109.447,205.705 108.950,205.189 108.433 C 204.673 107.917,204.175 107.419,204.083 107.328 C 203.992 107.236,203.524 106.768,203.045 106.289 C 202.565 105.809,202.077 105.322,201.961 105.205 C 201.845 105.089,201.359 104.602,200.881 104.122 C 200.404 103.642,199.916 103.160,199.798 103.050 C 199.680 102.939,199.492 102.752,199.380 102.633 C 199.268 102.514,199.090 102.332,198.985 102.228 C 198.880 102.125,198.580 101.825,198.319 101.562 C 198.058 101.299,197.748 100.993,197.630 100.883 C 197.513 100.773,197.325 100.585,197.213 100.466 C 197.101 100.347,196.923 100.165,196.818 100.062 C 196.713 99.958,196.413 99.658,196.152 99.395 C 195.891 99.132,195.581 98.827,195.464 98.716 C 195.346 98.606,195.158 98.419,195.046 98.300 C 194.934 98.181,194.757 97.999,194.651 97.895 C 194.546 97.791,194.238 97.472,193.967 97.187 C 193.696 96.901,193.410 96.667,193.332 96.667 C 193.253 96.667,193.143 96.521,193.086 96.342 C 193.029 96.163,192.841 95.972,192.667 95.917 C 192.493 95.861,192.306 95.678,192.253 95.508 C 192.199 95.339,191.970 95.153,191.744 95.097 C 191.518 95.040,191.333 94.921,191.333 94.832 C 191.333 94.743,191.033 94.623,190.667 94.564 C 190.300 94.505,190.000 94.392,190.000 94.312 C 190.000 94.124,185.712 94.121,185.639 94.309 C 185.317 95.137,183.134 94.043,182.761 92.867 C 182.700 92.674,182.521 92.476,182.363 92.426 C 181.081 92.019,180.678 90.760,181.562 89.926 C 181.871 89.634,182.177 89.232,182.240 89.031 C 182.304 88.831,182.418 88.667,182.493 88.667 C 182.569 88.667,182.681 88.465,182.743 88.218 C 182.805 87.972,182.990 87.653,183.154 87.510 C 183.318 87.367,183.511 87.063,183.583 86.833 C 183.655 86.604,183.853 86.295,184.024 86.147 C 184.194 85.999,184.383 85.624,184.443 85.314 C 184.504 85.004,184.681 84.637,184.835 84.500 C 184.990 84.362,185.169 83.969,185.232 83.625 C 185.296 83.281,185.414 83.000,185.494 83.000 C 185.575 83.000,185.690 82.775,185.750 82.500 C 185.810 82.225,185.929 82.000,186.013 82.000 C 186.098 82.000,186.167 81.813,186.167 81.583 C 186.167 81.354,186.235 81.167,186.318 81.167 C 186.401 81.167,186.520 80.792,186.583 80.333 C 186.646 79.875,186.766 79.500,186.849 79.500 C 186.932 79.500,187.000 79.313,187.000 79.083 C 187.000 78.854,187.070 78.667,187.155 78.667 C 187.240 78.667,187.361 78.254,187.424 77.750 C 187.487 77.246,187.600 76.833,187.674 76.833 C 187.749 76.833,187.863 76.233,187.927 75.500 C 187.991 74.767,188.108 74.167,188.188 74.167 C 188.268 74.167,188.333 73.723,188.333 73.181 C 188.333 72.617,188.411 72.168,188.515 72.134 C 188.640 72.092,188.696 70.674,188.696 67.583 C 188.696 64.493,188.640 63.074,188.515 63.033 C 188.415 62.999,188.333 62.603,188.333 62.153 C 188.333 61.702,188.269 61.333,188.191 61.333 C 188.113 61.333,188.000 60.756,187.941 60.051 C 187.881 59.346,187.766 58.727,187.686 58.676 C 187.606 58.625,187.486 58.115,187.420 57.542 C 187.354 56.969,187.233 56.500,187.150 56.500 C 187.068 56.500,187.000 56.313,187.000 56.083 C 187.000 55.854,186.926 55.667,186.835 55.667 C 186.745 55.667,186.623 55.367,186.564 55.000 C 186.505 54.633,186.392 54.333,186.312 54.333 C 186.232 54.333,186.167 54.146,186.167 53.917 C 186.167 53.688,186.093 53.500,186.002 53.500 C 185.911 53.500,185.789 53.200,185.731 52.833 C 185.672 52.467,185.559 52.167,185.479 52.167 C 185.399 52.167,185.333 52.092,185.333 52.001 C 185.333 51.732,184.765 50.500,184.641 50.500 C 184.578 50.500,184.477 50.275,184.417 50.000 C 184.356 49.725,184.238 49.500,184.153 49.500 C 184.069 49.500,184.000 49.358,184.000 49.184 C 184.000 49.011,183.887 48.826,183.750 48.773 C 183.612 48.720,183.500 48.579,183.500 48.459 C 183.500 48.339,183.350 48.132,183.167 48.001 C 182.984 47.869,182.789 47.515,182.732 47.214 C 182.676 46.913,182.561 46.667,182.476 46.667 C 182.392 46.667,182.273 46.536,182.211 46.375 C 182.150 46.215,181.927 45.912,181.716 45.701 C 181.506 45.491,181.333 45.227,181.333 45.115 C 181.333 45.004,181.146 44.772,180.917 44.600 C 180.688 44.427,180.500 44.185,180.500 44.060 C 180.500 43.935,180.430 43.833,180.345 43.833 C 180.259 43.833,180.143 43.687,180.086 43.509 C 180.029 43.330,179.841 43.139,179.667 43.083 C 179.493 43.028,179.305 42.841,179.250 42.667 C 179.195 42.493,179.003 42.304,178.825 42.247 C 178.646 42.191,178.500 42.042,178.500 41.917 C 178.500 41.685,177.467 40.500,177.265 40.500 C 177.114 40.500,176.769 40.208,176.031 39.459 C 175.693 39.115,175.333 38.834,175.232 38.834 C 175.130 38.833,174.906 38.646,174.734 38.417 C 174.562 38.188,174.325 38.000,174.209 38.000 C 174.092 38.000,173.868 37.850,173.711 37.667 C 173.554 37.483,173.298 37.333,173.141 37.333 C 172.984 37.333,172.808 37.183,172.750 37.000 C 172.692 36.817,172.503 36.667,172.330 36.667 C 172.158 36.667,171.957 36.569,171.883 36.449 C 171.810 36.330,171.469 36.101,171.125 35.942 C 170.781 35.782,170.500 35.588,170.500 35.511 C 170.500 35.434,170.237 35.321,169.917 35.261 C 169.596 35.201,169.333 35.080,169.333 34.992 C 169.333 34.905,169.221 34.833,169.083 34.833 C 168.946 34.833,168.833 34.762,168.833 34.674 C 168.833 34.587,168.571 34.466,168.250 34.406 C 167.929 34.345,167.667 34.230,167.667 34.148 C 167.667 34.067,167.554 34.000,167.417 34.000 C 167.279 34.000,167.167 33.926,167.167 33.835 C 167.167 33.745,166.867 33.623,166.500 33.564 C 166.133 33.505,165.833 33.399,165.833 33.328 C 165.833 33.256,165.458 33.146,165.000 33.083 C 164.542 33.020,164.167 32.901,164.167 32.818 C 164.167 32.735,164.054 32.667,163.917 32.667 C 163.779 32.667,163.667 32.597,163.667 32.512 C 163.667 32.427,163.254 32.306,162.750 32.243 C 162.246 32.180,161.833 32.062,161.833 31.981 C 161.833 31.900,161.577 31.833,161.264 31.833 C 160.951 31.833,160.669 31.760,160.639 31.671 C 160.608 31.582,160.021 31.458,159.333 31.396 C 158.646 31.334,158.038 31.215,157.984 31.131 C 157.929 31.047,156.635 30.935,155.109 30.881 C 153.582 30.826,152.333 30.719,152.333 30.641 C 152.333 30.458,151.046 30.457,150.933 30.640 M260.902 32.260 C 261.302 32.660,261.306 101.170,260.906 101.570 C 260.561 101.916,242.876 101.976,242.533 101.633 C 242.323 101.423,242.227 33.329,242.436 32.551 C 242.577 32.024,242.285 32.040,251.863 32.019 C 259.606 32.002,260.674 32.031,260.902 32.260 M39.667 58.582 L 39.667 82.831 63.542 82.874 C 76.673 82.897,87.604 82.874,87.833 82.821 L 88.250 82.726 88.250 58.571 L 88.250 34.417 63.958 34.374 L 39.667 34.332 39.667 58.582 M155.917 37.196 C 163.960 38.292,170.923 42.420,176.391 49.333 C 177.602 50.865,179.891 55.046,180.405 56.667 C 180.565 57.171,180.794 57.808,180.914 58.083 C 182.619 62.001,182.854 70.041,181.423 75.532 C 179.443 83.133,173.763 90.708,167.500 94.101 C 167.179 94.274,166.879 94.464,166.833 94.522 C 166.471 94.977,161.635 96.937,159.525 97.484 C 136.749 103.383,116.043 82.876,121.761 60.083 C 125.548 44.985,140.342 35.072,155.917 37.196 M84.501 37.944 L 85.000 38.388 85.000 58.635 L 85.000 78.881 84.502 79.357 L 84.003 79.833 63.848 79.833 L 43.692 79.833 43.179 79.321 L 42.667 78.808 42.667 58.647 L 42.667 38.487 43.125 38.010 L 43.583 37.533 63.793 37.516 L 84.003 37.500 84.501 37.944 M135.661 57.689 C 135.657 57.814,135.554 58.340,135.430 58.858 L 135.205 59.798 136.727 60.714 C 137.565 61.217,138.624 61.837,139.082 62.092 C 142.409 63.945,142.407 64.050,139.045 64.332 C 137.875 64.430,136.319 64.583,135.588 64.672 C 134.857 64.761,134.210 64.833,134.151 64.833 C 134.044 64.833,133.829 65.886,133.777 66.667 C 133.756 66.991,133.824 67.076,134.083 67.051 C 134.833 66.980,140.505 66.322,141.667 66.173 C 142.354 66.084,143.339 65.967,143.855 65.913 L 144.793 65.814 145.064 64.699 C 145.405 63.292,145.426 63.422,144.792 63.040 C 144.494 62.861,143.237 62.095,142.000 61.338 C 140.762 60.580,139.000 59.508,138.083 58.954 C 137.167 58.401,136.248 57.838,136.042 57.705 C 135.732 57.504,135.666 57.501,135.661 57.689 M160.167 60.935 C 155.064 62.876,156.112 69.934,161.500 69.908 C 167.431 69.880,167.593 61.141,161.667 60.892 C 160.979 60.863,160.304 60.883,160.167 60.935 M162.771 61.933 C 165.872 63.210,165.849 67.659,162.737 68.824 C 160.120 69.803,157.657 67.885,157.863 65.030 C 158.035 62.653,160.597 61.036,162.771 61.933 M129.226 75.917 C 129.277 76.100,129.408 76.625,129.517 77.083 C 130.946 83.068,135.798 88.362,142.583 91.340 C 152.872 95.854,166.185 89.993,170.577 79.015 C 171.300 77.209,171.277 76.864,170.487 77.654 C 164.813 83.328,155.575 86.360,147.333 85.254 C 143.129 84.690,138.656 83.116,135.771 81.186 C 135.412 80.946,134.997 80.675,134.848 80.583 C 133.627 79.834,132.591 78.964,130.608 77.025 C 129.781 76.216,129.174 75.730,129.226 75.917 " stroke="none" fill="#090606" fill-rule="evenodd"></path><path id="path2" d="M198.609 9.744 C 198.420 10.237,198.489 84.640,198.681 86.227 C 199.559 93.519,204.879 99.423,212.167 101.194 C 212.872 101.365,215.100 101.417,221.833 101.417 L 230.583 101.417 230.629 92.833 C 230.655 88.112,230.635 84.082,230.585 83.877 L 230.495 83.504 223.622 83.460 L 216.750 83.417 216.667 46.667 C 216.621 26.454,216.523 9.823,216.448 9.708 C 216.232 9.373,198.738 9.408,198.609 9.744 M274.371 9.671 L 273.992 9.825 274.049 48.204 C 274.113 90.801,274.023 87.558,275.224 90.517 C 277.519 96.172,282.545 100.233,288.488 101.235 C 290.303 101.541,305.204 101.630,305.667 101.337 C 305.884 101.200,305.917 100.029,305.917 92.464 L 305.917 83.750 299.167 83.667 C 295.454 83.621,292.323 83.523,292.208 83.448 C 292.043 83.341,292.000 75.822,292.000 46.772 C 292.000 15.482,291.966 10.184,291.764 9.907 C 291.500 9.547,275.218 9.326,274.371 9.671 M243.042 9.776 C 242.879 9.843,242.833 11.781,242.833 18.677 L 242.833 27.494 243.216 27.590 C 243.426 27.642,247.420 27.663,252.091 27.634 L 260.583 27.583 260.583 18.667 L 260.583 9.750 251.917 9.721 C 247.150 9.705,243.156 9.730,243.042 9.776 M314.754 10.708 C 314.597 12.046,314.730 101.119,314.890 101.278 C 315.052 101.439,331.259 101.430,331.903 101.268 L 332.333 101.160 332.333 88.830 C 332.333 76.633,332.337 76.496,332.674 76.159 C 333.003 75.830,333.169 75.820,337.674 75.868 L 342.334 75.917 343.505 77.167 C 344.149 77.854,345.387 79.144,346.255 80.032 C 347.123 80.920,347.833 81.710,347.833 81.786 C 347.833 81.863,347.965 82.040,348.125 82.180 C 348.285 82.319,348.652 82.704,348.939 83.034 C 349.226 83.364,349.620 83.719,349.814 83.823 C 350.008 83.927,350.167 84.092,350.167 84.190 C 350.167 84.288,350.609 84.829,351.150 85.392 C 351.691 85.956,352.347 86.672,352.609 86.983 C 352.870 87.295,353.346 87.826,353.667 88.164 C 356.472 91.121,357.243 91.946,358.333 93.157 C 359.021 93.921,359.996 94.979,360.500 95.507 C 361.337 96.385,362.999 98.160,365.150 100.473 L 365.977 101.362 374.911 101.310 L 383.845 101.258 383.820 98.512 L 383.794 95.767 383.106 94.942 C 382.727 94.489,382.079 93.761,381.667 93.325 C 381.254 92.889,380.598 92.168,380.208 91.724 C 378.489 89.765,377.519 88.703,376.625 87.801 C 376.098 87.269,375.666 86.777,375.665 86.708 C 375.664 86.640,375.121 86.014,374.457 85.319 C 373.793 84.623,372.688 83.428,372.000 82.663 C 370.316 80.790,370.192 80.667,370.000 80.667 C 369.908 80.667,369.833 80.572,369.833 80.455 C 369.833 80.339,369.503 79.899,369.098 79.477 C 368.694 79.055,367.918 78.194,367.373 77.563 C 366.828 76.933,365.577 75.592,364.593 74.583 C 363.609 73.575,362.622 72.469,362.400 72.125 C 362.178 71.781,361.941 71.500,361.873 71.500 C 361.805 71.499,361.600 71.274,361.417 70.999 C 361.233 70.723,360.952 70.456,360.792 70.405 C 360.632 70.353,360.281 69.997,360.013 69.614 C 359.744 69.230,359.349 68.729,359.134 68.500 C 357.739 67.009,357.733 66.890,359.000 65.627 C 359.550 65.078,360.000 64.582,360.001 64.523 C 360.001 64.465,360.395 63.999,360.876 63.490 C 361.698 62.618,362.552 61.697,364.625 59.448 C 365.106 58.925,365.500 58.450,365.500 58.392 C 365.500 58.333,366.063 57.722,366.750 57.035 C 367.438 56.347,368.000 55.714,368.000 55.628 C 368.000 55.542,368.544 54.924,369.208 54.254 C 370.314 53.139,371.544 51.800,373.264 49.839 C 373.623 49.429,374.629 48.354,375.500 47.451 C 376.371 46.547,377.153 45.682,377.237 45.529 C 377.322 45.376,377.778 44.837,378.250 44.333 C 378.723 43.829,379.629 42.862,380.263 42.184 C 380.898 41.506,381.818 40.531,382.308 40.017 C 383.688 38.573,383.801 38.203,383.773 35.203 L 383.750 32.656 374.833 32.657 L 365.917 32.659 365.083 33.543 C 364.625 34.029,363.853 34.875,363.367 35.422 C 362.881 35.969,361.606 37.341,360.534 38.471 C 356.965 42.229,356.029 43.244,355.436 44.000 C 355.113 44.413,354.737 44.862,354.601 45.000 C 352.501 47.128,350.671 49.085,350.354 49.544 C 350.212 49.749,349.906 50.067,349.674 50.250 C 349.195 50.630,349.298 50.524,347.083 52.926 C 346.167 53.920,345.248 54.896,345.042 55.094 C 344.835 55.293,344.667 55.578,344.667 55.728 C 344.667 55.878,344.292 56.270,343.833 56.599 C 343.375 56.929,343.000 57.287,343.000 57.396 C 343.000 58.241,333.477 58.644,332.667 57.833 C 332.337 57.503,332.333 57.278,332.333 34.440 C 332.333 21.757,332.286 11.032,332.227 10.607 L 332.121 9.833 323.489 9.833 L 314.857 9.833 314.754 10.708 M21.111 15.611 C 21.050 15.672,21.000 35.021,21.000 58.608 L 21.000 101.494 21.375 101.586 C 22.527 101.869,91.931 101.567,93.167 101.274 C 100.554 99.519,105.684 94.072,106.994 86.594 C 107.376 84.410,107.218 31.792,106.823 29.810 C 106.273 27.050,105.415 25.140,103.542 22.506 C 100.999 18.930,96.286 16.255,91.504 15.672 C 89.927 15.480,21.302 15.420,21.111 15.611 M90.250 16.083 C 91.939 16.146,93.592 16.381,93.912 16.604 C 94.093 16.730,94.369 16.833,94.527 16.833 C 94.727 16.833,94.828 16.995,94.864 17.374 C 94.932 18.070,95.429 18.208,95.662 17.595 C 95.752 17.360,95.885 17.167,95.959 17.167 C 96.223 17.167,96.837 17.693,96.746 17.841 C 96.694 17.924,96.989 18.076,97.400 18.180 C 98.026 18.337,98.165 18.447,98.254 18.851 C 98.333 19.210,98.456 19.333,98.737 19.333 C 98.945 19.333,99.257 19.490,99.430 19.681 C 99.811 20.102,101.118 21.000,101.350 21.000 C 101.442 21.000,101.596 21.225,101.692 21.500 C 101.788 21.775,101.976 22.000,102.109 22.000 C 102.243 22.000,102.308 22.073,102.253 22.162 C 102.113 22.389,102.632 23.133,103.015 23.255 C 103.190 23.310,103.333 23.498,103.333 23.673 C 103.333 23.847,103.558 24.156,103.833 24.360 C 104.319 24.719,104.504 25.167,104.167 25.167 C 104.075 25.167,104.000 25.354,104.000 25.582 C 104.000 25.817,103.855 26.088,103.667 26.205 C 103.445 26.344,103.333 26.594,103.333 26.952 C 103.333 27.676,103.762 27.518,103.908 26.738 C 103.995 26.272,104.090 26.167,104.424 26.167 C 104.967 26.167,105.032 27.076,104.500 27.215 C 104.317 27.263,104.167 27.422,104.167 27.568 C 104.167 27.971,105.494 27.946,105.517 27.542 C 105.543 27.080,105.798 27.999,105.817 28.625 C 105.826 28.923,105.908 29.167,106.000 29.167 C 106.092 29.167,106.167 29.354,106.167 29.583 C 106.167 29.813,106.092 30.000,106.000 30.000 C 105.667 30.000,105.817 30.972,106.167 31.083 C 106.528 31.198,106.685 33.000,106.333 33.000 C 106.124 33.000,106.105 38.533,106.314 38.758 C 106.395 38.845,106.507 44.692,106.564 51.750 C 106.621 58.808,106.712 68.708,106.767 73.750 C 106.854 81.728,106.831 83.198,106.589 85.083 C 106.437 86.275,106.269 87.609,106.217 88.047 C 106.161 88.524,106.008 88.926,105.838 89.047 C 105.535 89.262,105.281 90.167,105.523 90.167 C 105.602 90.167,105.667 90.278,105.667 90.415 C 105.667 90.573,105.530 90.648,105.292 90.623 C 104.980 90.590,104.908 90.675,104.864 91.125 C 104.822 91.566,104.740 91.667,104.424 91.667 C 103.979 91.667,103.753 92.254,103.914 92.990 C 103.986 93.314,103.919 93.521,103.673 93.744 C 103.486 93.913,103.333 94.126,103.333 94.217 C 103.333 94.536,101.211 96.667,100.894 96.667 C 100.769 96.667,100.667 96.774,100.667 96.905 C 100.667 97.218,99.667 97.925,99.311 97.865 C 99.134 97.835,99.043 97.924,99.059 98.111 C 99.074 98.293,98.831 98.546,98.417 98.779 C 98.050 98.985,97.550 99.268,97.305 99.407 C 97.061 99.547,96.423 99.818,95.889 100.009 C 95.354 100.200,94.767 100.420,94.583 100.497 C 92.716 101.279,92.529 101.283,55.792 101.330 L 21.333 101.373 21.333 58.714 C 21.333 35.252,21.390 15.996,21.458 15.923 C 21.558 15.817,87.194 15.970,90.250 16.083 M95.667 18.233 C 95.667 18.425,96.999 18.969,97.094 18.816 C 97.152 18.722,97.043 18.603,96.850 18.553 C 96.658 18.502,96.500 18.395,96.500 18.314 C 96.500 18.233,96.313 18.167,96.083 18.167 C 95.854 18.167,95.667 18.197,95.667 18.233 M98.833 21.830 C 98.833 22.125,98.912 22.149,99.581 22.058 C 100.025 21.997,100.417 22.028,100.545 22.135 C 100.925 22.451,101.314 22.076,100.967 21.729 C 100.741 21.502,100.634 21.486,100.440 21.647 C 100.274 21.785,100.162 21.794,100.088 21.675 C 99.878 21.335,98.833 21.464,98.833 21.830 M100.833 23.153 C 100.833 23.508,100.914 23.667,101.094 23.667 C 101.279 23.667,101.340 23.537,101.303 23.221 C 101.226 22.572,100.833 22.515,100.833 23.153 M101.833 24.566 C 101.833 24.847,102.241 25.025,102.583 24.894 C 103.037 24.720,102.864 24.333,102.333 24.333 C 102.017 24.333,101.833 24.419,101.833 24.566 M244.542 32.458 L 242.833 32.512 242.833 67.007 L 242.833 101.503 251.708 101.460 L 260.583 101.417 260.625 66.985 L 260.667 32.554 255.890 32.444 C 251.304 32.338,248.212 32.342,244.542 32.458 M40.484 33.667 C 39.971 33.712,39.427 33.853,39.276 33.979 C 38.863 34.321,38.849 82.825,39.262 83.238 C 39.583 83.559,88.080 83.647,88.678 83.327 C 88.994 83.158,89.000 82.718,89.000 59.656 C 89.000 38.211,89.023 36.147,89.268 36.053 C 89.515 35.959,89.515 35.938,89.268 35.800 C 88.953 35.624,88.906 34.726,89.207 34.625 C 89.355 34.576,89.331 34.474,89.122 34.265 C 88.962 34.104,88.873 33.904,88.925 33.820 C 89.064 33.595,42.915 33.449,40.484 33.667 M88.507 34.347 C 88.731 34.765,88.686 82.407,88.461 82.875 C 88.283 83.248,39.905 83.338,39.533 82.967 C 39.243 82.676,39.243 34.491,39.533 34.200 C 39.687 34.046,45.354 34.000,64.027 34.000 L 88.322 34.000 88.507 34.347 M159.988 62.292 C 159.021 62.782,158.085 63.925,158.212 64.460 C 158.264 64.681,158.330 64.630,158.484 64.250 C 159.363 62.091,162.308 61.484,163.726 63.168 C 164.860 64.516,164.738 67.171,163.512 67.827 C 163.337 67.921,163.077 68.114,162.935 68.255 C 162.794 68.397,162.432 68.511,162.131 68.510 C 161.830 68.508,161.335 68.505,161.032 68.504 C 160.093 68.500,158.500 67.253,158.500 66.523 C 158.500 66.338,158.425 66.140,158.333 66.083 C 158.242 66.027,158.155 65.704,158.142 65.365 C 158.122 64.883,158.102 64.846,158.049 65.196 C 157.591 68.187,161.841 70.067,163.950 67.806 C 166.524 65.047,163.329 60.600,159.988 62.292 M130.917 77.167 C 131.275 77.533,131.605 77.833,131.651 77.833 C 131.697 77.833,131.441 77.533,131.083 77.167 C 130.725 76.800,130.395 76.500,130.349 76.500 C 130.303 76.500,130.559 76.800,130.917 77.167 M103.833 89.468 C 103.833 89.868,104.252 90.434,104.387 90.215 C 104.503 90.027,104.153 89.170,103.958 89.168 C 103.890 89.167,103.833 89.302,103.833 89.468 M104.795 92.031 C 104.759 92.140,104.640 92.259,104.531 92.295 C 104.409 92.336,104.372 92.260,104.434 92.097 C 104.551 91.794,104.895 91.731,104.795 92.031 M101.375 95.277 C 101.131 95.375,101.092 95.833,101.327 95.833 C 101.416 95.833,101.569 95.683,101.667 95.500 C 101.844 95.169,101.774 95.116,101.375 95.277 " stroke="none" fill="#b10404" fill-rule="evenodd"></path><path id="path3" d="M198.339 9.489 C 198.044 10.040,198.111 84.453,198.409 86.688 C 199.336 93.653,204.484 99.436,211.483 101.374 C 213.144 101.834,230.445 102.051,230.806 101.617 C 230.953 101.439,230.992 99.120,230.960 92.398 L 230.917 83.417 224.000 83.329 C 220.196 83.280,217.065 83.224,217.042 83.204 C 217.019 83.183,217.000 66.607,217.000 46.367 C 217.000 17.967,216.954 9.521,216.800 9.367 C 216.406 8.972,198.552 9.091,198.339 9.489 M273.742 9.377 C 273.698 9.492,273.682 27.061,273.707 48.418 L 273.753 87.250 274.216 88.833 C 276.151 95.455,281.640 100.447,288.230 101.579 C 290.169 101.912,305.974 101.960,306.300 101.633 C 306.451 101.483,306.500 99.244,306.500 92.583 C 306.500 85.922,306.451 83.684,306.300 83.533 C 306.151 83.384,304.393 83.333,299.417 83.333 C 294.441 83.333,292.682 83.282,292.533 83.133 C 292.379 82.979,292.333 74.559,292.333 46.250 C 292.333 17.941,292.288 9.521,292.133 9.367 C 291.836 9.069,273.857 9.078,273.742 9.377 M242.506 9.656 C 242.393 9.866,242.333 12.996,242.333 18.667 C 242.333 24.337,242.393 27.467,242.506 27.678 C 242.779 28.189,260.724 28.182,260.998 27.670 C 261.231 27.234,261.219 10.077,260.986 9.640 C 260.723 9.149,242.769 9.165,242.506 9.656 M314.444 9.444 C 314.170 9.719,314.322 101.627,314.597 101.732 C 315.192 101.961,332.451 101.843,332.645 101.609 C 332.778 101.450,332.844 97.787,332.874 88.901 L 332.917 76.417 337.496 76.372 L 342.076 76.328 342.580 76.876 C 344.781 79.269,348.808 83.616,351.178 86.158 C 354.457 89.674,358.005 93.506,359.916 95.595 C 362.070 97.950,364.032 100.046,365.014 101.042 L 365.794 101.833 374.864 101.833 C 381.696 101.833,383.983 101.784,384.133 101.633 C 384.274 101.493,384.333 100.553,384.333 98.470 L 384.333 95.507 382.042 92.990 C 380.781 91.606,379.385 90.048,378.939 89.528 C 378.494 89.009,377.669 88.096,377.106 87.500 C 376.543 86.904,375.033 85.258,373.750 83.842 C 372.467 82.426,370.179 79.910,368.667 78.250 C 365.853 75.164,359.948 68.682,359.125 67.777 C 358.873 67.500,358.667 67.166,358.667 67.036 C 358.667 66.690,359.425 65.822,366.484 58.093 C 368.079 56.346,369.692 54.576,370.067 54.159 C 370.923 53.210,375.671 48.007,376.600 47.000 C 376.980 46.587,378.876 44.493,380.813 42.346 L 384.333 38.442 384.333 35.398 C 384.333 33.634,384.266 32.311,384.173 32.254 C 383.826 32.039,365.823 32.154,365.523 32.373 C 365.365 32.489,364.415 33.483,363.411 34.583 C 362.408 35.683,360.080 38.196,358.239 40.167 C 356.399 42.137,354.485 44.206,353.988 44.763 C 352.683 46.225,349.611 49.554,347.081 52.250 C 343.386 56.186,342.854 56.762,342.492 57.222 L 342.142 57.667 337.488 57.667 L 332.833 57.667 332.833 33.764 C 332.833 20.617,332.788 9.742,332.732 9.597 C 332.627 9.322,314.716 9.173,314.444 9.444 M216.448 9.708 C 216.523 9.823,216.621 26.454,216.667 46.667 L 216.750 83.417 223.622 83.460 L 230.495 83.504 230.585 83.877 C 230.635 84.082,230.655 88.112,230.629 92.833 L 230.583 101.417 221.833 101.417 C 215.100 101.417,212.872 101.365,212.167 101.194 C 204.879 99.423,199.559 93.519,198.681 86.227 C 198.489 84.640,198.420 10.237,198.609 9.744 C 198.738 9.408,216.232 9.373,216.448 9.708 M291.764 9.907 C 291.966 10.184,292.000 15.482,292.000 46.772 C 292.000 75.822,292.043 83.341,292.208 83.448 C 292.323 83.523,295.454 83.621,299.167 83.667 L 305.917 83.750 305.917 92.464 C 305.917 100.029,305.884 101.200,305.667 101.337 C 305.204 101.630,290.303 101.541,288.488 101.235 C 282.545 100.233,277.519 96.172,275.224 90.517 C 274.023 87.558,274.113 90.801,274.049 48.204 L 273.992 9.825 274.371 9.671 C 275.218 9.326,291.500 9.547,291.764 9.907 M260.583 18.667 L 260.583 27.583 252.091 27.634 C 247.420 27.663,243.426 27.642,243.216 27.590 L 242.833 27.494 242.833 18.677 C 242.833 11.781,242.879 9.843,243.042 9.776 C 243.156 9.730,247.150 9.705,251.917 9.721 L 260.583 9.750 260.583 18.667 M332.227 10.607 C 332.286 11.032,332.333 21.757,332.333 34.440 C 332.333 57.278,332.337 57.503,332.667 57.833 C 333.477 58.644,343.000 58.241,343.000 57.396 C 343.000 57.287,343.375 56.929,343.833 56.599 C 344.292 56.270,344.667 55.878,344.667 55.728 C 344.667 55.578,344.835 55.293,345.042 55.094 C 345.248 54.896,346.167 53.920,347.083 52.926 C 349.298 50.524,349.195 50.630,349.674 50.250 C 349.906 50.067,350.212 49.749,350.354 49.544 C 350.671 49.085,352.501 47.128,354.601 45.000 C 354.737 44.862,355.113 44.413,355.436 44.000 C 356.029 43.244,356.965 42.229,360.534 38.471 C 361.606 37.341,362.881 35.969,363.367 35.422 C 363.853 34.875,364.625 34.029,365.083 33.543 L 365.917 32.659 374.833 32.657 L 383.750 32.656 383.773 35.203 C 383.801 38.203,383.688 38.573,382.308 40.017 C 381.818 40.531,380.898 41.506,380.263 42.184 C 379.629 42.862,378.723 43.829,378.250 44.333 C 377.778 44.837,377.322 45.376,377.237 45.529 C 377.153 45.682,376.371 46.547,375.500 47.451 C 374.629 48.354,373.623 49.429,373.264 49.839 C 371.544 51.800,370.314 53.139,369.208 54.254 C 368.544 54.924,368.000 55.542,368.000 55.628 C 368.000 55.714,367.438 56.347,366.750 57.035 C 366.063 57.722,365.500 58.333,365.500 58.392 C 365.500 58.450,365.106 58.925,364.625 59.448 C 362.552 61.697,361.698 62.618,360.876 63.490 C 360.395 63.999,360.001 64.465,360.001 64.523 C 360.000 64.582,359.550 65.078,359.000 65.627 C 357.733 66.890,357.739 67.009,359.134 68.500 C 359.349 68.729,359.744 69.230,360.013 69.614 C 360.281 69.997,360.632 70.353,360.792 70.405 C 360.952 70.456,361.233 70.723,361.417 70.999 C 361.600 71.274,361.805 71.499,361.873 71.500 C 361.941 71.500,362.178 71.781,362.400 72.125 C 362.622 72.469,363.609 73.575,364.593 74.583 C 365.577 75.592,366.828 76.933,367.373 77.563 C 367.918 78.194,368.694 79.055,369.098 79.477 C 369.503 79.899,369.833 80.339,369.833 80.455 C 369.833 80.572,369.908 80.667,370.000 80.667 C 370.192 80.667,370.316 80.790,372.000 82.663 C 372.688 83.428,373.793 84.623,374.457 85.319 C 375.121 86.014,375.664 86.640,375.665 86.708 C 375.666 86.777,376.098 87.269,376.625 87.801 C 377.519 88.703,378.489 89.765,380.208 91.724 C 380.598 92.168,381.254 92.889,381.667 93.325 C 382.079 93.761,382.727 94.489,383.106 94.942 L 383.794 95.767 383.820 98.512 L 383.845 101.258 374.911 101.310 L 365.977 101.362 365.150 100.473 C 362.999 98.160,361.337 96.385,360.500 95.507 C 359.996 94.979,359.021 93.921,358.333 93.157 C 357.243 91.946,356.472 91.121,353.667 88.164 C 353.346 87.826,352.870 87.295,352.609 86.983 C 352.347 86.672,351.691 85.956,351.150 85.392 C 350.609 84.829,350.167 84.288,350.167 84.190 C 350.167 84.092,350.008 83.927,349.814 83.823 C 349.620 83.719,349.226 83.364,348.939 83.034 C 348.652 82.704,348.285 82.319,348.125 82.180 C 347.965 82.040,347.833 81.863,347.833 81.786 C 347.833 81.710,347.123 80.920,346.255 80.032 C 345.387 79.144,344.149 77.854,343.505 77.167 L 342.334 75.917 337.674 75.868 C 333.169 75.820,333.003 75.830,332.674 76.159 C 332.337 76.496,332.333 76.633,332.333 88.830 L 332.333 101.160 331.903 101.268 C 331.259 101.430,315.052 101.439,314.890 101.278 C 314.730 101.119,314.597 12.046,314.754 10.708 L 314.857 9.833 323.489 9.833 L 332.121 9.833 332.227 10.607 M20.769 15.594 C 20.615 15.996,20.651 101.384,20.805 101.627 C 20.973 101.891,90.167 101.933,92.185 101.671 C 99.899 100.667,106.208 94.276,107.325 86.333 C 107.474 85.269,107.511 78.147,107.470 57.667 L 107.417 30.417 106.952 28.750 C 105.192 22.435,100.420 17.653,94.021 15.795 L 92.750 15.426 56.810 15.377 C 24.016 15.332,20.862 15.351,20.769 15.594 M91.504 15.672 C 96.286 16.255,100.999 18.930,103.542 22.506 C 105.415 25.140,106.273 27.050,106.823 29.810 C 107.218 31.792,107.376 84.410,106.994 86.594 C 105.684 94.072,100.554 99.519,93.167 101.274 C 91.931 101.567,22.527 101.869,21.375 101.586 L 21.000 101.494 21.000 58.608 C 21.000 35.021,21.050 15.672,21.111 15.611 C 21.302 15.420,89.927 15.480,91.504 15.672 M242.809 32.112 C 242.658 32.152,242.490 32.349,242.436 32.551 C 242.227 33.329,242.323 101.423,242.533 101.633 C 242.876 101.976,260.561 101.916,260.906 101.570 C 261.306 101.170,261.302 32.660,260.902 32.260 C 260.654 32.012,243.707 31.873,242.809 32.112 M255.890 32.444 L 260.667 32.554 260.625 66.985 L 260.583 101.417 251.708 101.460 L 242.833 101.503 242.833 67.007 L 242.833 32.512 244.542 32.458 C 248.212 32.342,251.304 32.338,255.890 32.444 M39.533 34.200 C 39.243 34.491,39.243 82.676,39.533 82.967 C 39.905 83.338,88.283 83.248,88.461 82.875 C 88.686 82.407,88.731 34.765,88.507 34.347 L 88.322 34.000 64.027 34.000 C 45.354 34.000,39.687 34.046,39.533 34.200 M88.250 58.571 L 88.250 82.726 87.833 82.821 C 87.604 82.874,76.673 82.897,63.542 82.874 L 39.667 82.831 39.667 58.582 L 39.667 34.332 63.958 34.374 L 88.250 34.417 88.250 58.571 M149.917 36.940 C 136.680 37.597,124.991 47.205,121.761 60.083 C 116.043 82.876,136.749 103.383,159.525 97.484 C 161.635 96.937,166.471 94.977,166.833 94.522 C 166.879 94.464,167.179 94.274,167.500 94.101 C 173.763 90.708,179.443 83.133,181.423 75.532 C 182.854 70.041,182.619 62.001,180.914 58.083 C 180.794 57.808,180.565 57.171,180.405 56.667 C 179.891 55.046,177.602 50.865,176.391 49.333 C 169.601 40.749,160.357 36.421,149.917 36.940 M155.897 37.424 C 168.982 39.418,179.526 49.432,181.673 61.904 C 181.761 62.415,181.909 63.265,182.001 63.792 C 183.298 71.188,180.453 80.908,175.136 87.250 C 159.081 106.398,128.185 99.379,121.951 75.167 C 116.594 54.360,134.728 34.197,155.897 37.424 M135.498 57.754 C 135.408 57.993,135.341 58.352,135.350 58.553 C 135.359 58.771,135.443 58.639,135.558 58.224 L 135.750 57.531 137.917 58.855 C 139.108 59.583,140.597 60.484,141.226 60.857 C 143.806 62.389,145.256 63.360,145.363 63.630 C 145.470 63.899,145.477 63.899,145.488 63.627 C 145.502 63.294,145.197 63.087,140.062 59.952 C 135.248 57.013,135.698 57.229,135.498 57.754 M135.104 59.375 C 134.969 59.870,135.079 59.954,138.574 62.014 C 140.182 62.961,141.442 63.790,141.374 63.857 C 141.306 63.923,140.203 64.060,138.924 64.162 C 137.645 64.263,136.564 64.380,136.522 64.423 C 136.363 64.581,140.763 64.261,141.375 64.069 C 141.983 63.878,141.398 63.380,138.987 62.039 C 136.091 60.428,135.249 59.826,135.304 59.408 C 135.371 58.896,135.240 58.875,135.104 59.375 M159.542 60.996 C 159.152 61.172,158.833 61.356,158.833 61.403 C 158.833 61.521,159.363 61.324,159.651 61.099 C 160.687 60.290,163.775 61.071,165.003 62.451 C 165.393 62.891,165.633 63.100,165.536 62.917 C 164.550 61.060,161.532 60.092,159.542 60.996 M158.039 62.044 C 157.331 62.775,156.820 63.997,156.743 65.138 L 156.680 66.083 156.835 65.119 C 157.035 63.872,157.490 62.859,158.156 62.178 C 158.449 61.878,158.660 61.604,158.624 61.569 C 158.589 61.534,158.326 61.748,158.039 62.044 M160.010 62.047 C 156.970 63.287,157.169 67.866,160.307 68.892 C 164.112 70.137,166.801 65.275,163.812 62.558 C 162.800 61.638,161.455 61.457,160.010 62.047 M162.688 62.156 C 166.150 63.688,165.217 68.833,161.476 68.833 C 157.828 68.833,156.718 63.951,159.989 62.292 C 161.058 61.750,161.697 61.718,162.688 62.156 M165.784 63.833 C 166.807 68.344,162.557 71.710,158.940 69.255 C 158.606 69.028,158.333 68.910,158.333 68.992 C 158.333 69.074,158.795 69.372,159.360 69.654 C 161.718 70.832,164.465 69.937,165.716 67.583 C 166.140 66.785,166.240 64.158,165.868 63.583 C 165.678 63.290,165.668 63.320,165.784 63.833 M145.006 64.889 L 144.816 65.804 144.033 65.895 C 143.602 65.945,142.800 66.036,142.250 66.098 C 141.700 66.160,141.335 66.242,141.438 66.279 C 141.541 66.317,142.324 66.277,143.177 66.192 C 144.906 66.018,145.057 65.917,145.235 64.808 C 145.399 63.778,145.223 63.840,145.006 64.889 M134.121 64.708 C 133.969 64.823,133.803 65.254,133.753 65.667 C 133.687 66.208,133.705 66.324,133.819 66.083 C 133.906 65.900,133.982 65.549,133.988 65.304 C 133.999 64.886,134.061 64.851,134.958 64.752 C 136.415 64.591,136.513 64.541,135.407 64.519 C 134.828 64.508,134.279 64.589,134.121 64.708 M156.849 66.417 C 156.839 66.838,157.398 68.084,157.673 68.254 C 157.800 68.333,157.774 68.195,157.605 67.900 C 157.453 67.634,157.223 67.117,157.093 66.750 C 156.958 66.370,156.853 66.227,156.849 66.417 M138.667 66.500 L 137.917 66.617 138.750 66.629 C 139.208 66.636,139.921 66.582,140.333 66.509 L 141.083 66.375 140.250 66.379 C 139.792 66.382,139.079 66.436,138.667 66.500 M135.583 66.856 C 134.942 66.938,134.342 67.038,134.250 67.080 C 133.995 67.197,136.768 66.974,137.379 66.829 L 137.917 66.701 137.333 66.705 C 137.012 66.707,136.225 66.775,135.583 66.856 M129.000 75.648 C 129.000 78.595,132.734 84.867,136.254 87.834 C 147.927 97.672,166.253 92.609,171.093 78.208 C 171.666 76.505,171.559 76.377,170.454 77.444 C 167.142 80.641,162.845 83.041,158.083 84.351 C 157.167 84.603,156.604 84.814,156.833 84.819 C 157.245 84.829,159.714 84.127,161.167 83.587 C 164.194 82.462,168.280 79.861,170.487 77.654 C 172.909 75.232,168.965 82.967,166.361 85.746 C 160.286 92.228,150.079 94.629,142.583 91.340 C 135.690 88.314,131.116 83.283,129.481 76.926 C 129.104 75.460,129.086 75.465,130.281 76.708 C 131.767 78.254,133.631 79.836,134.848 80.583 C 134.997 80.675,135.412 80.946,135.771 81.186 C 139.500 83.681,145.681 85.477,150.596 85.495 C 152.387 85.501,155.573 85.202,156.068 84.981 C 156.312 84.872,156.166 84.855,155.583 84.927 C 153.004 85.243,152.106 85.316,150.750 85.321 C 143.303 85.350,134.684 81.566,130.115 76.263 C 129.269 75.281,129.000 75.133,129.000 75.648 " stroke="none" fill="#660f0f" fill-rule="evenodd"></path><path id="path4" d="M21.458 15.923 C 21.390 15.996,21.333 35.252,21.333 58.714 L 21.333 101.373 55.792 101.330 C 92.529 101.283,92.716 101.279,94.583 100.497 C 94.767 100.420,95.354 100.200,95.889 100.009 C 96.423 99.818,97.061 99.547,97.305 99.407 C 97.550 99.268,98.050 98.985,98.417 98.779 C 98.831 98.546,99.074 98.293,99.059 98.111 C 99.043 97.924,99.134 97.835,99.311 97.865 C 99.667 97.925,100.667 97.218,100.667 96.905 C 100.667 96.774,100.769 96.667,100.894 96.667 C 101.211 96.667,103.333 94.536,103.333 94.217 C 103.333 94.126,103.486 93.913,103.673 93.744 C 103.919 93.521,103.986 93.314,103.914 92.990 C 103.753 92.254,103.979 91.667,104.424 91.667 C 104.740 91.667,104.822 91.566,104.864 91.125 C 104.908 90.675,104.980 90.590,105.292 90.623 C 105.530 90.648,105.667 90.573,105.667 90.415 C 105.667 90.278,105.602 90.167,105.523 90.167 C 105.281 90.167,105.535 89.262,105.838 89.047 C 106.008 88.926,106.161 88.524,106.217 88.047 C 106.269 87.609,106.437 86.275,106.589 85.083 C 106.831 83.198,106.854 81.728,106.767 73.750 C 106.712 68.708,106.621 58.808,106.564 51.750 C 106.507 44.692,106.395 38.845,106.314 38.758 C 106.105 38.533,106.124 33.000,106.333 33.000 C 106.685 33.000,106.528 31.198,106.167 31.083 C 105.817 30.972,105.667 30.000,106.000 30.000 C 106.092 30.000,106.167 29.813,106.167 29.583 C 106.167 29.354,106.092 29.167,106.000 29.167 C 105.908 29.167,105.826 28.923,105.817 28.625 C 105.798 27.999,105.543 27.080,105.517 27.542 C 105.494 27.946,104.167 27.971,104.167 27.568 C 104.167 27.422,104.317 27.263,104.500 27.215 C 105.032 27.076,104.967 26.167,104.424 26.167 C 104.090 26.167,103.995 26.272,103.908 26.738 C 103.762 27.518,103.333 27.676,103.333 26.952 C 103.333 26.594,103.445 26.344,103.667 26.205 C 103.855 26.088,104.000 25.817,104.000 25.582 C 104.000 25.354,104.075 25.167,104.167 25.167 C 104.504 25.167,104.319 24.719,103.833 24.360 C 103.558 24.156,103.333 23.847,103.333 23.673 C 103.333 23.498,103.190 23.310,103.015 23.255 C 102.632 23.133,102.113 22.389,102.253 22.162 C 102.308 22.073,102.243 22.000,102.109 22.000 C 101.976 22.000,101.788 21.775,101.692 21.500 C 101.596 21.225,101.442 21.000,101.350 21.000 C 101.118 21.000,99.811 20.102,99.430 19.681 C 99.257 19.490,98.945 19.333,98.737 19.333 C 98.456 19.333,98.333 19.210,98.254 18.851 C 98.165 18.447,98.026 18.337,97.400 18.180 C 96.989 18.076,96.694 17.924,96.746 17.841 C 96.837 17.693,96.223 17.167,95.959 17.167 C 95.885 17.167,95.752 17.360,95.662 17.595 C 95.429 18.208,94.932 18.070,94.864 17.374 C 94.828 16.995,94.727 16.833,94.527 16.833 C 94.369 16.833,94.093 16.730,93.912 16.604 C 93.592 16.381,91.939 16.146,90.250 16.083 C 87.194 15.970,21.558 15.817,21.458 15.923 M96.500 18.314 C 96.500 18.395,96.658 18.502,96.850 18.553 C 97.043 18.603,97.152 18.722,97.094 18.816 C 97.026 18.926,96.749 18.864,96.327 18.644 C 95.556 18.242,95.517 18.167,96.083 18.167 C 96.313 18.167,96.500 18.233,96.500 18.314 M100.088 21.675 C 100.162 21.794,100.274 21.785,100.440 21.647 C 100.634 21.486,100.741 21.502,100.967 21.729 C 101.314 22.076,100.925 22.451,100.545 22.135 C 100.417 22.028,100.025 21.997,99.581 22.058 C 98.912 22.149,98.833 22.125,98.833 21.830 C 98.833 21.464,99.878 21.335,100.088 21.675 M101.303 23.221 C 101.340 23.537,101.279 23.667,101.094 23.667 C 100.914 23.667,100.833 23.508,100.833 23.153 C 100.833 22.515,101.226 22.572,101.303 23.221 M102.833 24.566 C 102.833 24.847,102.426 25.025,102.083 24.894 C 101.630 24.720,101.802 24.333,102.333 24.333 C 102.650 24.333,102.833 24.419,102.833 24.566 M88.635 33.639 C 88.846 33.654,88.977 33.736,88.925 33.820 C 88.873 33.904,88.962 34.104,89.122 34.265 C 89.331 34.474,89.355 34.576,89.207 34.625 C 88.906 34.726,88.953 35.624,89.268 35.800 C 89.515 35.938,89.515 35.959,89.268 36.053 C 89.023 36.147,89.000 38.211,89.000 59.656 C 89.000 82.718,88.994 83.158,88.678 83.327 C 88.080 83.647,39.583 83.559,39.262 83.238 C 38.849 82.825,38.863 34.321,39.276 33.979 C 39.427 33.853,39.971 33.712,40.484 33.667 C 41.302 33.594,87.640 33.567,88.635 33.639 M160.250 62.443 C 158.796 63.208,157.540 65.593,158.333 66.083 C 158.425 66.140,158.500 66.338,158.500 66.523 C 158.500 67.253,160.093 68.500,161.032 68.504 C 161.335 68.505,161.830 68.508,162.131 68.510 C 162.432 68.511,162.794 68.397,162.935 68.255 C 163.077 68.114,163.337 67.921,163.512 67.827 C 164.309 67.400,164.763 65.719,164.406 64.518 C 163.830 62.577,161.862 61.595,160.250 62.443 M104.287 89.608 C 104.540 90.153,104.369 90.502,104.058 90.077 C 103.817 89.747,103.753 89.166,103.958 89.168 C 104.027 89.169,104.175 89.367,104.287 89.608 M104.434 92.097 C 104.372 92.260,104.409 92.336,104.531 92.295 C 104.780 92.212,104.917 91.833,104.698 91.833 C 104.609 91.833,104.490 91.952,104.434 92.097 M101.667 95.500 C 101.569 95.683,101.416 95.833,101.327 95.833 C 101.092 95.833,101.131 95.375,101.375 95.277 C 101.774 95.116,101.844 95.169,101.667 95.500 " stroke="none" fill="#dc0404" fill-rule="evenodd"></path></g></svg>